<svg xmlns="http://www.w3.org/2000/svg" xmlns:xlink="http://www.w3.org/1999/xlink" id="_a0" viewBox="0 0 1280 720" onclick="document.getElementById('_a0').getAnimations({subtree:true}).forEach(function(a){a.currentTime=0;a.play()})" style="background: #002b36; white-space: pre;"><style>
@keyframes a1_t { 0% { transform: translate(820px,231px); } 37.5% { transform: translate(820px,231px); animation-timing-function: cubic-bezier(0,0,.3,.3); } 37.625% { transform: translate(813.5px,231.7px); animation-timing-function: cubic-bezier(.2,.2,.6,.6); } 37.775% { transform: translate(806.2px,234.2px); animation-timing-function: cubic-bezier(.3,.3,.6,.6); } 38.075% { transform: translate(793.6px,241.9px); animation-timing-function: cubic-bezier(.3,.3,.6,.6); } 38.65% { transform: translate(773px,260.8px); animation-timing-function: cubic-bezier(.3,.3,.6,.6); } 39.825% { transform: translate(738.7px,301.7px); animation-timing-function: cubic-bezier(.3,.3,.6,.7); } 42.175% { transform: translate(681px,378.9px); animation-timing-function: cubic-bezier(.3,.4,.6,.7); } 46.875% { transform: translate(581.2px,497.7px); animation-timing-function: cubic-bezier(.3,.5,.7,.8); } 51.55% { transform: translate(497.1px,555.9px); animation-timing-function: cubic-bezier(.3,.5,.7,.8); } 53.9% { transform: translate(468px,563.2px); animation-timing-function: cubic-bezier(.3,.4,.7,.7); } 56.25% { transform: translate(454.7px,564px); animation-timing-function: cubic-bezier(.4,.8,1,1); } 71.875% { transform: translate(181.2px,564px); } 100% { transform: translate(181.2px,564px); } }
@keyframes a0_t { 0% { transform: rotate(2deg); } 37.5% { transform: rotate(2deg); animation-timing-function: cubic-bezier(0,0,.3,.3); } 37.625% { transform: rotate(-12.8deg); animation-timing-function: cubic-bezier(.2,.2,.6,.6); } 37.775% { transform: rotate(-24.6deg); animation-timing-function: cubic-bezier(.3,.3,.6,.6); } 38.075% { transform: rotate(-37deg); animation-timing-function: cubic-bezier(.3,.3,.6,.6); } 38.65% { transform: rotate(-46.5deg); animation-timing-function: cubic-bezier(.3,.3,.6,.6); } 39.825% { transform: rotate(-52.2deg); animation-timing-function: cubic-bezier(.3,.3,.6,.7); } 42.175% { transform: rotate(-53.3deg); animation-timing-function: cubic-bezier(.3,.4,.6,.7); } 46.875% { transform: rotate(-44.1deg); animation-timing-function: cubic-bezier(.3,.5,.7,.8); } 51.55% { transform: rotate(-20.7deg); animation-timing-function: cubic-bezier(.3,.5,.7,.8); } 53.9% { transform: rotate(-6.9deg); animation-timing-function: cubic-bezier(.3,.4,.7,.7); } 56.25% { transform: rotate(.4deg); animation-timing-function: cubic-bezier(.4,.8,1,1); } 56.275% { transform: rotate(0deg); } 71.875% { transform: rotate(0deg); } 100% { transform: rotate(0deg); } }
@keyframes a0_v { 0% { visibility: hidden; animation-timing-function: steps(1); } 37.5% { visibility: visible; animation-timing-function: steps(1); } 72.5% { visibility: visible; animation-timing-function: steps(1); } 100% { visibility: visible; animation-timing-function: steps(1); } }
@keyframes a2_t { 0% { transform: translate(1043.5px,548px) rotate(-318.6deg); } 12.5% { transform: translate(1043.5px,548px) rotate(-318.6deg); animation-timing-function: cubic-bezier(.3,.3,.7,.7); } 14.05% { transform: translate(1031.3px,536.1px) rotate(-312.9deg); animation-timing-function: cubic-bezier(.3,.3,.7,.7); } 15.625% { transform: translate(1019.3px,521.9px) rotate(-307.5deg); animation-timing-function: cubic-bezier(.3,.3,.7,.7); } 18.75% { transform: translate(997.5px,487.8px) rotate(-298.5deg); animation-timing-function: cubic-bezier(.4,.3,.7,.7); } 25% { transform: translate(962px,401.6px) rotate(-288.3deg); animation-timing-function: cubic-bezier(.4,.4,.8,.8); } 31.25% { transform: translate(928.8px,299.1px) rotate(-290.7deg); animation-timing-function: cubic-bezier(.5,.5,.8,.8); } 34.375% { transform: translate(901.5px,247.5px) rotate(-310.3deg); animation-timing-function: cubic-bezier(.5,.5,.9,.9); } 35.925% { transform: translate(876.9px,230px) rotate(-342.5deg); animation-timing-function: cubic-bezier(.6,.6,.9,.9); } 36.7% { transform: translate(861.4px,228px) rotate(-362.2deg); animation-timing-function: cubic-bezier(.7,.7,1,1); } 37.5% { transform: translate(845px,231px) rotate(-377.4deg); animation-timing-function: cubic-bezier(0,0,.3,.3); } 37.975% { transform: translate(828.6px,235.1px) rotate(-368.8deg); animation-timing-function: cubic-bezier(.2,.3,.6,.6); } 38.475% { transform: translate(811.6px,236.4px) rotate(-360.5deg); animation-timing-function: cubic-bezier(.3,.3,.6,.6); } 39.45% { transform: translate(779.8px,233.5px) rotate(-350.2deg); animation-timing-function: cubic-bezier(.3,.3,.6,.6); } 41.4% { transform: translate(721.7px,217.9px) rotate(-341.2deg); animation-timing-function: cubic-bezier(.3,.3,.6,.6); } 45.3% { transform: translate(618.7px,178.6px) rotate(-339deg); animation-timing-function: cubic-bezier(.3,.3,.6,.7); } 49.2% { transform: translate(524px,147.5px) rotate(-346.1deg); animation-timing-function: cubic-bezier(.3,.3,.7,.7); } 51.15% { transform: translate(478.3px,138.8px) rotate(-353deg); animation-timing-function: cubic-bezier(.3,.3,.7,.7); } 52.125% { transform: translate(455.9px,137px) rotate(-357.5deg); animation-timing-function: cubic-bezier(.3,.3,.7,.7); } 53.125% { transform: translate(433.3px,137px) rotate(-362.8deg); animation-timing-function: cubic-bezier(.2,.4,.5,.8); } 71.875% { transform: translate(224.7px,153px) rotate(-364.4deg); } 100% { transform: translate(224.7px,153px) rotate(-364.4deg); } }
@keyframes a2_v { 0% { visibility: visible; animation-timing-function: steps(1); } 71.875% { visibility: visible; animation-timing-function: steps(1); } 100% { visibility: visible; animation-timing-function: steps(1); } }
</style><defs><symbol id="WordPress" height="100" overflow="visible" preserveAspectRatio="none" viewBox="0 0 100 100" width="100"><g data-name="Layer" transform="translate(50,50) scale(.5,.5) translate(-126.6,-126.6)"><g clip-path="url(#ClipPath-1)"><path d="M201.2 85.8c6.6 12.1 10.4 26 10.4 40.8c0 31.4-17 58.7-42.3 73.4l26-75c4.8-12.1 6.4-21.8 6.4-30.4c0-3.1-0.2-6-0.5-8.8m-62.9 1c5.1-0.3 9.7-0.8 9.7-0.8c4.6-0.6 4.1-7.3-0.5-7c0 0-13.8 1-22.6 1c-8.4 0-22.4-1-22.4-1c-4.6-0.3-5.1 6.7-0.6 7c0 0 4.4 .5 9 .8l13.2 36.2l-18.6 55.8l-30.9-92c5.1-0.3 9.7-0.8 9.7-0.8c4.6-0.6 4-7.3-0.6-7c0 0-13.7 1-22.6 1c-1.6 0-3.5 0-5.5-0.1c15.2-23 41.3-38.3 71-38.3c22.1 0 42.3 8.5 57.4 22.4c-0.4-0.1-0.7-0.1-1.1-0.1c-8.4 0-14.3 7.3-14.3 15.1c0 7 4.1 12.9 8.4 19.9c3.2 5.6 7 12.9 7 23.4c0 7.3-2.8 15.7-6.5 27.5l-8.5 28.3Zm-11.7 124.8c-8.3 0-16.4-1.2-24-3.5l25.5-74.1l26.1 71.6c.2 .4 .4 .8 .6 1.2c-8.8 3.1-18.3 4.8-28.2 4.8m-85-85c0-12.3 2.7-24 7.4-34.6l40.5 111.1c-28.3-13.8-47.9-42.9-47.9-76.5m85-94.5c-52.1 0-94.5 42.4-94.5 94.5c0 52.1 42.4 94.5 94.5 94.5c52.1 0 94.5-42.4 94.5-94.5c0-52.1-42.4-94.5-94.5-94.5" fill="#3858e9"/></g></g></symbol><clipPath id="ClipPath-1"><path d="M0 0h252v252h-252Z"/></clipPath></defs><image xlink:href="img/server.png" width="124" height="124" preserveAspectRatio="none" transform="translate(409.2,78.5)"/><image xlink:href="img/server.png" width="124" height="124" preserveAspectRatio="none" transform="translate(409.2,502)"/><image xlink:href="img/server.png" width="124" height="124" preserveAspectRatio="none" transform="translate(783,169)"/><image xlink:href="img/akirk.jpeg" width="64" height="64" preserveAspectRatio="none" transform="translate(1082,554.9)"/><image xlink:href="img/akirk.jpeg" width="64" height="64" preserveAspectRatio="none" transform="translate(1082,554.9)"/><image xlink:href="img/akirk.jpeg" width="64" height="64" preserveAspectRatio="none" transform="translate(1085.7,137)"/><image xlink:href="img/david-bisset.jpg" width="64" height="64" preserveAspectRatio="none" transform="translate(1082,220)"/><image xlink:href="img/ppk.jpg" width="64" height="64" preserveAspectRatio="none" transform="translate(115,137)"/><image xlink:href="img/simonw.jpg" width="64" height="64" preserveAspectRatio="none" transform="translate(67,440)"/><image xlink:href="img/darius.jpeg" width="64" height="64" preserveAspectRatio="none" transform="translate(67,532)"/><image xlink:href="img/markus-mueller.png" width="64" height="64" preserveAspectRatio="none" transform="translate(1082,328)"/><path d="M181.2 169l228-32" stroke="#fff" fill="none" stroke-linecap="square"/><path d="M131 472l278.2 92" stroke="#fff" fill="none" stroke-linecap="square"/><path d="M133.2 564h276" stroke="#fff" fill="none" stroke-linecap="square"/><path d="M931.9 392l-24.9-156" stroke="#fff" fill="none" stroke-linecap="square"/><path d="M1085.7 169l-178.7 67" stroke="#fff" fill="none" stroke-linecap="square"/><path d="M1081.4 586.9l-131.8-124" stroke="#fff" fill="none" stroke-linecap="square"/><path d="M1082 268l-175-32" stroke="#fff" fill="none" stroke-linecap="square"/><path d="M1081.4 360l-174.4-124" stroke="#fff" fill="none" stroke-linecap="square"/><g style="animation: 4s linear infinite both a1_t; animation-play-state: paused;"><text fill="#fff" font-family="Arial" letter-spacing="0" word-spacing="0" visibility="hidden" text-anchor="middle" transform="translate(820,231) rotate(2)" style="line-height: 16px; animation: 4s linear infinite both a0_t, 4s linear infinite forwards a0_v; animation-play-state: paused;">Hello World!</text></g><text fill="#fff" font-family="Arial" letter-spacing="0" word-spacing="0" text-anchor="middle" visibility="visible" transform="translate(1043.5,548) rotate(-318.6)" style="line-height: 16px; animation: 4s linear infinite both a2_t, 4s linear infinite forwards a2_v; animation-play-state: paused;">Hello World!</text><path d="M783 236l-249.8 328" stroke="#fff" fill="none" stroke-linecap="square"/><path d="M471.2 201v301" stroke="#fff" fill="none" stroke-linecap="square"/><path d="M533.2 140.5l249.8 95.5" stroke="#fff" fill="none" stroke-linecap="square"/><use x="897.7" y="392" xlink:href="#WordPress" width="68.3" height="70.9"/><script><![CDATA[
new IntersectionObserver(function(es){es.forEach(function(e){if(e.isIntersecting){document.getElementById('_a0').getAnimations({subtree:true}).forEach(function(a){a.currentTime=0;a.play()})}else{document.getElementById('_a0').getAnimations({subtree:true}).forEach(function(a){a.pause();a.currentTime=0})}})},{threshold:.25}).observe(document.getElementById("_a0"));]]></script></svg>