<svg xmlns="http://www.w3.org/2000/svg" viewBox="0 0 160 160" width="160" height="160"><path d="m61.04 2.346 1.807 7.304a72.591 72.591 0 0 0-20.18 8.346l-3.866-6.45a80.02 80.02 0 0 1 22.239-9.2zm38.554 0L97.787 9.65a72.591 72.591 0 0 1 20.18 8.346l3.891-6.45a80.02 80.02 0 0 0-22.264-9.2zM11.541 38.805a80.02 80.02 0 0 0-9.2 22.239l7.305 1.807a72.591 72.591 0 0 1 8.346-20.18zM7.525 80.321a72.666 72.666 0 0 1 .816-10.906l-7.443-1.13a80.61 80.61 0 0 0 0 24.072l7.443-1.13a72.666 72.666 0 0 1-.816-10.906zm114.31 68.775-3.866-6.45a72.591 72.591 0 0 1-20.156 8.345l1.808 7.304a80.02 80.02 0 0 0 22.214-9.199zm31.275-68.775a72.666 72.666 0 0 1-.816 10.906l7.442 1.13a80.61 80.61 0 0 0 0-24.072l-7.442 1.13a72.666 72.666 0 0 1 .816 10.906zm5.183 19.277-7.304-1.807a72.591 72.591 0 0 1-8.346 20.18l6.45 3.891a80.02 80.02 0 0 0 9.2-22.264zm-67.069 52.711a73.306 73.306 0 0 1-21.812 0l-1.13 7.442a80.61 80.61 0 0 0 24.072 0zm47.691-28.803a73.055 73.055 0 0 1-15.424 15.412l4.468 6.062a80.447 80.447 0 0 0 17.018-16.968zm-15.424-101.78a73.055 73.055 0 0 1 15.424 15.424l6.062-4.518a80.447 80.447 0 0 0-16.968-16.968zM21.721 37.15a73.055 73.055 0 0 1 15.424-15.424l-4.518-6.062A80.447 80.447 0 0 0 15.66 32.632zm127.37 1.657-6.45 3.865a72.591 72.591 0 0 1 8.345 20.156l7.305-1.807a80.02 80.02 0 0 0-9.2-22.214zM69.41 8.347a73.306 73.306 0 0 1 21.812 0l1.13-7.442a80.61 80.61 0 0 0-24.071 0zm-43.826 138.63-15.55 3.628 3.627-15.55-7.33-1.72-3.626 15.55a7.53 7.53 0 0 0 9.049 9.049l15.537-3.564zM7.9 126.622l7.33 1.706 2.51-10.78a72.478 72.478 0 0 1-8.095-19.755L2.34 99.6a79.719 79.719 0 0 0 7.404 19.089zm35.141 16.315-10.78 2.51 1.706 7.33 7.932-1.846a79.719 79.719 0 0 0 19.089 7.405l1.807-7.304a72.478 72.478 0 0 1-19.704-8.145zm37.274-127.87a65.261 65.261 0 0 0-55.22 99.988l-6.276 26.77 26.77-6.276a65.261 65.261 0 1 0 34.727-120.48z" fill="#3a76f0"/><path fill="#1b1b1b"/></svg>
